# xmcd
#
# Track frame offsets: 
#        150
#        26694
#        44958
#        67532
#        79224
#        103029
#        121363
#        142714
#        173994
#        201012
#
# Disc length: 3021 seconds
#
# Revision: 0
# Processed by: cddbd v1.5.2PL0 Copyright (c) Steve Scherf et al.
# Submitted via: ExactAudioCopyFreeDBPlugin 1.0
#
DISCID=840bcb0a
DTITLE=Various Artist - The 1968 Memphis Country Blues Festival [CD1]
DYEAR=2006
DGENRE=Blues
TTITLE0=Highway 61 - Nathan Beauregard
TTITLE1=Kid Gal Blues - Nathan Beauregard
TTITLE2=Hello Central, Give Me 49 - Bukka White
TTITLE3=Baby Please Don't Go - Bukka White
TTITLE4=Furry's Blues - Furry Lewis
TTITLE5=In Heaven, Sitting Down - Rev Robert Wilkins
TTITLE6=What Do You Think About Jesus? - Rev Robert Wilkins
TTITLE7=You Don't Know My Mind - Joe Callicott
TTITLE8=Great Long Ways From Home - Joe Callicott
TTITLE9=My Mother Died - Bukka White
EXTD=
EXTT0=
EXTT1=
EXTT2=
EXTT3=
EXTT4=
EXTT5=
EXTT6=
EXTT7=
EXTT8=
EXTT9=
PLAYORDER=
